<svg width="24" height="24" viewBox="0 0 24 24" fill="none" xmlns="http://www.w3.org/2000/svg">
<path d="M3.00008 5.0001C2.86757 4.99823 2.73601 5.02271 2.61304 5.07212C2.49007 5.12153 2.37815 5.1949 2.28378 5.28794C2.18941 5.38098 2.11447 5.49186 2.06333 5.61411C2.01218 5.73637 1.98584 5.86757 1.98584 6.0001C1.98584 6.13263 2.01218 6.26383 2.06333 6.38609C2.11447 6.50834 2.18941 6.61922 2.28378 6.71226C2.37815 6.8053 2.49007 6.87867 2.61304 6.92808C2.73601 6.97749 2.86757 7.00197 3.00008 7.0001H21.0001C21.1326 7.00197 21.2642 6.97749 21.3871 6.92808C21.5101 6.87867 21.622 6.8053 21.7164 6.71226C21.8108 6.61922 21.8857 6.50834 21.9368 6.38609C21.988 6.26383 22.0143 6.13263 22.0143 6.0001C22.0143 5.86757 21.988 5.73637 21.9368 5.61411C21.8857 5.49186 21.8108 5.38098 21.7164 5.28794C21.622 5.1949 21.5101 5.12153 21.3871 5.07212C21.2642 5.02271 21.1326 4.99823 21.0001 5.0001H3.00008ZM3.00008 11.0001C2.86757 10.9982 2.73601 11.0227 2.61304 11.0721C2.49007 11.1215 2.37815 11.1949 2.28378 11.2879C2.18941 11.381 2.11447 11.4919 2.06333 11.6141C2.01218 11.7364 1.98584 11.8676 1.98584 12.0001C1.98584 12.1326 2.01218 12.2638 2.06333 12.3861C2.11447 12.5083 2.18941 12.6192 2.28378 12.7123C2.37815 12.8053 2.49007 12.8787 2.61304 12.9281C2.73601 12.9775 2.86757 13.002 3.00008 13.0001H21.0001C21.1326 13.002 21.2642 12.9775 21.3871 12.9281C21.5101 12.8787 21.622 12.8053 21.7164 12.7123C21.8108 12.6192 21.8857 12.5083 21.9368 12.3861C21.988 12.2638 22.0143 12.1326 22.0143 12.0001C22.0143 11.8676 21.988 11.7364 21.9368 11.6141C21.8857 11.4919 21.8108 11.381 21.7164 11.2879C21.622 11.1949 21.5101 11.1215 21.3871 11.0721C21.2642 11.0227 21.1326 10.9982 21.0001 11.0001H3.00008ZM3.00008 17.0001C2.86757 16.9982 2.73601 17.0227 2.61304 17.0721C2.49007 17.1215 2.37815 17.1949 2.28378 17.2879C2.18941 17.381 2.11447 17.4919 2.06333 17.6141C2.01218 17.7364 1.98584 17.8676 1.98584 18.0001C1.98584 18.1326 2.01218 18.2638 2.06333 18.3861C2.11447 18.5083 2.18941 18.6192 2.28378 18.7123C2.37815 18.8053 2.49007 18.8787 2.61304 18.9281C2.73601 18.9775 2.86757 19.002 3.00008 19.0001H21.0001C21.1326 19.002 21.2642 18.9775 21.3871 18.9281C21.5101 18.8787 21.622 18.8053 21.7164 18.7123C21.8108 18.6192 21.8857 18.5083 21.9368 18.3861C21.988 18.2638 22.0143 18.1326 22.0143 18.0001C22.0143 17.8676 21.988 17.7364 21.9368 17.6141C21.8857 17.4919 21.8108 17.381 21.7164 17.2879C21.622 17.1949 21.5101 17.1215 21.3871 17.0721C21.2642 17.0227 21.1326 16.9982 21.0001 17.0001H3.00008Z" fill="black"/>
</svg>
