<svg width="24" height="24" viewBox="0 0 24 24" fill="none" xmlns="http://www.w3.org/2000/svg">
<path d="M19.7372 18.4753L16.7159 15.463C17.6907 14.2211 18.2196 12.6876 18.2176 11.1088C18.2176 9.70283 17.8007 8.32841 17.0196 7.15937C16.2385 5.99033 15.1282 5.07918 13.8293 4.54113C12.5303 4.00308 11.1009 3.8623 9.72196 4.1366C8.34299 4.41089 7.07631 5.08794 6.08213 6.08213C5.08794 7.07631 4.41089 8.34299 4.1366 9.72196C3.8623 11.1009 4.00308 12.5303 4.54113 13.8293C5.07918 15.1282 5.99033 16.2385 7.15937 17.0196C8.32841 17.8007 9.70283 18.2176 11.1088 18.2176C12.6876 18.2196 14.2211 17.6907 15.463 16.7159L18.4753 19.7372C18.5579 19.8204 18.6562 19.8865 18.7645 19.9317C18.8728 19.9768 18.9889 20 19.1062 20C19.2236 20 19.3397 19.9768 19.448 19.9317C19.5563 19.8865 19.6545 19.8204 19.7372 19.7372C19.8204 19.6545 19.8865 19.5563 19.9317 19.448C19.9768 19.3397 20 19.2236 20 19.1062C20 18.9889 19.9768 18.8728 19.9317 18.7645C19.8865 18.6562 19.8204 18.5579 19.7372 18.4753ZM5.77721 11.1088C5.77721 10.0543 6.0899 9.02352 6.67575 8.14674C7.26159 7.26996 8.09428 6.58659 9.0685 6.18305C10.0427 5.77952 11.1147 5.67393 12.149 5.87965C13.1832 6.08538 14.1332 6.59316 14.8788 7.3388C15.6245 8.08444 16.1323 9.03444 16.338 10.0687C16.5437 11.1029 16.4381 12.1749 16.0346 13.1491C15.6311 14.1234 14.9477 14.9561 14.0709 15.5419C13.1941 16.1277 12.1633 16.4404 11.1088 16.4404C9.69479 16.4404 8.33867 15.8787 7.3388 14.8788C6.33893 13.879 5.77721 12.5229 5.77721 11.1088Z" fill="black"/>
</svg>
